<svg width="235" height="69" viewBox="0 0 235 69" fill="none" xmlns="http://www.w3.org/2000/svg">
<path d="M66.528 7.62939e-06C67.232 7.62939e-06 67.84 0.256008 68.352 0.768009C68.864 1.28001 69.12 1.88801 69.12 2.59201V64.608C69.12 65.312 68.864 65.92 68.352 66.432C67.84 66.944 67.232 67.2 66.528 67.2H46.752C46.048 67.2 45.44 66.944 44.928 66.432C44.416 65.92 44.16 65.312 44.16 64.608V44.16H24.96V64.608C24.96 65.312 24.704 65.92 24.192 66.432C23.68 66.944 23.072 67.2 22.368 67.2H2.59201C1.88801 67.2 1.28001 66.976 0.76801 66.528C0.25601 66.016 1.0252e-05 65.376 1.0252e-05 64.608V2.59201C1.0252e-05 1.88801 0.25601 1.28001 0.76801 0.768009C1.28001 0.256008 1.88801 7.62939e-06 2.59201 7.62939e-06H22.368C23.072 7.62939e-06 23.68 0.256008 24.192 0.768009C24.704 1.28001 24.96 1.88801 24.96 2.59201V22.272H44.16V2.59201C44.16 1.88801 44.416 1.28001 44.928 0.768009C45.44 0.256008 46.048 7.62939e-06 46.752 7.62939e-06H66.528ZM116.123 68.16C105.371 68.16 96.8265 65.824 90.4905 61.152C84.2185 56.48 81.0825 49.184 81.0825 39.264V2.59201C81.0825 1.88801 81.3385 1.28001 81.8505 0.768009C82.3625 0.256008 82.9705 7.62939e-06 83.6745 7.62939e-06H103.739C104.443 7.62939e-06 105.051 0.256008 105.563 0.768009C106.075 1.28001 106.331 1.88801 106.331 2.59201V40.8C106.331 43.424 107.195 45.44 108.923 46.848C110.715 48.256 113.115 48.96 116.123 48.96C119.131 48.96 121.499 48.256 123.227 46.848C125.019 45.44 125.915 43.424 125.915 40.8V2.59201C125.915 1.88801 126.171 1.28001 126.683 0.768009C127.195 0.256008 127.803 7.62939e-06 128.507 7.62939e-06H148.571C149.275 7.62939e-06 149.883 0.256008 150.395 0.768009C150.907 1.28001 151.163 1.88801 151.163 2.59201V39.264C151.163 49.184 147.995 56.48 141.659 61.152C135.387 65.824 126.875 68.16 116.123 68.16ZM225.141 32.16C227.637 32.928 229.781 34.624 231.573 37.248C233.365 39.808 234.261 42.752 234.261 46.08C234.261 53.184 231.957 58.496 227.349 62.016C222.741 65.472 216.021 67.2 207.189 67.2H167.637C166.933 67.2 166.325 66.944 165.813 66.432C165.301 65.92 165.045 65.312 165.045 64.608V2.59201C165.045 1.88801 165.301 1.28001 165.813 0.768009C166.325 0.256008 166.933 7.62939e-06 167.637 7.62939e-06H206.229C215.317 7.62939e-06 222.005 1.66401 226.293 4.99201C230.645 8.25601 232.821 13.216 232.821 19.872V20.16C232.821 23.232 231.989 25.856 230.325 28.032C228.661 30.208 226.933 31.584 225.141 32.16ZM206.805 20.736C206.805 19.584 206.453 18.592 205.749 17.76C205.109 16.928 204.149 16.512 202.869 16.512H190.005V25.248H202.869C204.149 25.248 205.109 24.8 205.749 23.904C206.453 22.944 206.805 21.888 206.805 20.736ZM203.925 50.688C205.397 50.688 206.485 50.208 207.189 49.248C207.957 48.224 208.341 47.104 208.341 45.888V45.792C208.341 44.576 207.925 43.52 207.093 42.624C206.325 41.728 205.269 41.28 203.925 41.28H190.005V50.688H203.925Z" fill="url(#paint0_linear_380_30)"/>
<defs>
<linearGradient id="paint0_linear_380_30" x1="-6.23999" y1="36.7" x2="238.76" y2="36.7" gradientUnits="userSpaceOnUse">
<stop offset="0.677885" stop-color="#D79922"/>
<stop offset="1" stop-color="#F13C1F"/>
</linearGradient>
</defs>
</svg>
