<svg width="651" height="116" viewBox="0 0 651 116" fill="none" xmlns="http://www.w3.org/2000/svg">
<path d="M120.552 88.48C119.336 88.48 118.312 88.064 117.48 87.232C116.648 86.4 116.232 85.376 116.232 84.16V46.528H110.568C109.544 46.528 108.648 46.176 107.88 45.472C107.176 44.704 106.824 43.808 106.824 42.784C106.824 41.696 107.176 40.8 107.88 40.096C108.648 39.392 109.544 39.04 110.568 39.04H116.232V33.472C116.232 29.44 116.936 26.208 118.344 23.776C119.816 21.344 121.672 19.616 123.912 18.592C126.152 17.504 128.392 16.96 130.632 16.96C132.232 16.96 133.736 17.152 135.144 17.536C136.552 17.856 137.832 18.304 138.984 18.88C139.56 19.136 140.072 19.584 140.52 20.224C140.968 20.8 141.192 21.472 141.192 22.24C141.192 23.136 140.84 23.968 140.136 24.736C139.496 25.504 138.664 25.888 137.64 25.888C136.872 25.888 136.104 25.792 135.336 25.6C134.568 25.408 133.736 25.312 132.84 25.312C130.472 25.312 128.552 25.888 127.08 27.04C125.672 28.128 124.968 30.368 124.968 33.76V39.04H136.968C138.056 39.04 138.952 39.392 139.656 40.096C140.36 40.8 140.712 41.696 140.712 42.784C140.712 43.808 140.36 44.704 139.656 45.472C138.952 46.176 138.056 46.528 136.968 46.528H124.968V84.16C124.968 85.376 124.552 86.4 123.72 87.232C122.888 88.064 121.832 88.48 120.552 88.48ZM153.56 88.48C152.344 88.48 151.32 88.064 150.488 87.232C149.656 86.4 149.24 85.376 149.24 84.16V42.976C149.24 41.76 149.656 40.736 150.488 39.904C151.32 39.008 152.344 38.56 153.56 38.56C154.776 38.56 155.8 39.008 156.632 39.904C157.528 40.736 157.976 41.76 157.976 42.976V47.104C159.704 44.8 161.816 42.72 164.312 40.864C166.808 39.008 169.72 38.08 173.048 38.08H173.528C174.744 38.08 175.736 38.496 176.504 39.328C177.336 40.16 177.752 41.184 177.752 42.4C177.752 43.616 177.336 44.608 176.504 45.376C175.672 46.144 174.616 46.528 173.336 46.528H172.856C169.72 46.528 166.872 47.328 164.312 48.928C161.752 50.464 159.64 52.48 157.976 54.976V84.16C157.976 85.376 157.528 86.4 156.632 87.232C155.8 88.064 154.776 88.48 153.56 88.48ZM198.47 88.96C195.718 88.96 193.126 88.384 190.694 87.232C188.326 86.08 186.406 84.448 184.934 82.336C183.526 80.16 182.822 77.568 182.822 74.56C182.822 70.016 184.614 66.304 188.198 63.424C191.846 60.48 197.414 59.008 204.902 59.008H216.518V58.24C216.518 53.952 215.462 50.912 213.35 49.12C211.238 47.264 208.006 46.336 203.654 46.336C200.966 46.336 198.598 46.592 196.55 47.104C194.566 47.552 192.678 48.064 190.886 48.64C190.374 48.768 189.958 48.832 189.638 48.832C188.678 48.832 187.846 48.48 187.142 47.776C186.438 47.072 186.086 46.208 186.086 45.184C186.086 43.456 186.918 42.24 188.582 41.536C190.822 40.576 193.286 39.776 195.974 39.136C198.726 38.432 201.798 38.08 205.19 38.08C209.862 38.08 213.67 39.008 216.614 40.864C219.558 42.72 221.734 45.088 223.142 47.968C224.55 50.848 225.254 53.856 225.254 56.992V84.16C225.254 85.376 224.806 86.4 223.91 87.232C223.078 88.064 222.054 88.48 220.838 88.48C219.622 88.48 218.598 88.064 217.766 87.232C216.934 86.4 216.518 85.376 216.518 84.16V81.664C214.79 83.456 212.486 85.12 209.606 86.656C206.726 88.192 203.014 88.96 198.47 88.96ZM201.734 81.28C204.742 81.28 207.558 80.544 210.182 79.072C212.806 77.6 214.918 75.936 216.518 74.08V66.016H206.054C201.574 66.016 198.022 66.592 195.398 67.744C192.838 68.896 191.558 70.848 191.558 73.6C191.558 75.648 192.262 77.44 193.67 78.976C195.142 80.512 197.83 81.28 201.734 81.28ZM244.217 88.48C243.001 88.48 241.977 88.064 241.145 87.232C240.313 86.4 239.897 85.376 239.897 84.16V42.976C239.897 41.76 240.313 40.736 241.145 39.904C241.977 39.008 243.001 38.56 244.217 38.56C245.433 38.56 246.457 39.008 247.289 39.904C248.185 40.736 248.633 41.76 248.633 42.976V46.912C249.529 45.632 250.649 44.32 251.993 42.976C253.401 41.632 255.161 40.48 257.273 39.52C259.385 38.56 261.945 38.08 264.953 38.08C268.793 38.08 271.929 39.104 274.361 41.152C276.857 43.2 278.617 45.472 279.641 47.968C280.409 46.752 281.497 45.376 282.905 43.84C284.313 42.304 286.169 40.96 288.473 39.808C290.841 38.656 293.785 38.08 297.305 38.08C301.081 38.08 304.153 39.04 306.521 40.96C308.889 42.816 310.617 45.152 311.705 47.968C312.793 50.784 313.337 53.632 313.337 56.512V84.16C313.337 85.376 312.889 86.4 311.993 87.232C311.161 88.064 310.137 88.48 308.921 88.48C307.705 88.48 306.681 88.064 305.849 87.232C305.017 86.4 304.601 85.376 304.601 84.16V58.24C304.601 54.208 303.865 51.2 302.393 49.216C300.985 47.168 298.457 46.144 294.809 46.144C292.377 46.144 290.297 46.624 288.569 47.584C286.841 48.48 285.369 49.632 284.153 51.04C282.937 52.448 281.881 53.888 280.985 55.36V84.16C280.985 85.376 280.537 86.4 279.641 87.232C278.809 88.064 277.785 88.48 276.569 88.48C275.353 88.48 274.329 88.064 273.497 87.232C272.665 86.4 272.249 85.376 272.249 84.16V58.24C272.249 54.208 271.513 51.2 270.041 49.216C268.633 47.168 266.105 46.144 262.457 46.144C260.025 46.144 257.945 46.624 256.217 47.584C254.489 48.48 253.017 49.632 251.801 51.04C250.585 52.448 249.529 53.888 248.633 55.36V84.16C248.633 85.376 248.185 86.4 247.289 87.232C246.457 88.064 245.433 88.48 244.217 88.48ZM349.91 88.96C342.102 88.96 335.99 86.752 331.574 82.336C327.222 77.856 325.046 71.584 325.046 63.52C325.046 59.168 325.846 55.072 327.446 51.232C329.046 47.328 331.542 44.16 334.934 41.728C338.326 39.296 342.678 38.08 347.99 38.08C352.918 38.08 357.078 39.232 360.47 41.536C363.862 43.776 366.422 46.72 368.15 50.368C369.942 54.016 370.838 57.984 370.838 62.272C370.838 63.488 370.422 64.512 369.59 65.344C368.822 66.176 367.766 66.592 366.422 66.592H333.878C334.39 70.88 336.022 74.336 338.774 76.96C341.526 79.52 345.494 80.8 350.678 80.8C353.558 80.8 355.99 80.544 357.974 80.032C359.958 79.456 361.846 78.72 363.638 77.824C364.15 77.568 364.726 77.44 365.366 77.44C366.39 77.44 367.286 77.792 368.054 78.496C368.822 79.2 369.206 80.096 369.206 81.184C369.206 81.952 368.95 82.656 368.438 83.296C367.99 83.872 367.414 84.352 366.71 84.736C364.598 85.952 362.294 86.976 359.798 87.808C357.366 88.576 354.07 88.96 349.91 88.96ZM333.878 59.488H362.198C362.006 56.16 361.142 53.472 359.606 51.424C358.134 49.376 356.342 47.872 354.23 46.912C352.118 45.952 350.038 45.472 347.99 45.472C345.942 45.472 343.862 45.952 341.75 46.912C339.638 47.872 337.846 49.376 336.374 51.424C334.902 53.472 334.07 56.16 333.878 59.488Z" fill="#F13C1F"/>
<path d="M386.717 88.48C385.501 88.48 384.477 88.064 383.645 87.232C382.813 86.4 382.397 85.376 382.397 84.16V21.856C382.397 20.576 382.813 19.52 383.645 18.688C384.477 17.856 385.501 17.44 386.717 17.44C387.933 17.44 388.957 17.856 389.789 18.688C390.685 19.52 391.133 20.576 391.133 21.856V46.912C393.181 44.672 395.581 42.656 398.333 40.864C401.149 39.008 404.701 38.08 408.989 38.08C412.637 38.08 415.741 38.944 418.301 40.672C420.861 42.336 422.813 44.608 424.156 47.488C425.501 50.304 426.173 53.44 426.173 56.896V84.16C426.173 85.376 425.725 86.4 424.829 87.232C423.997 88.064 422.973 88.48 421.757 88.48C420.541 88.48 419.517 88.064 418.685 87.232C417.853 86.4 417.437 85.376 417.437 84.16V57.856C417.437 54.208 416.605 51.36 414.941 49.312C413.341 47.2 410.653 46.144 406.877 46.144C403.421 46.144 400.413 47.072 397.853 48.928C395.293 50.784 393.053 52.928 391.133 55.36V84.16C391.133 85.376 390.685 86.4 389.789 87.232C388.957 88.064 387.933 88.48 386.717 88.48ZM462.497 88.96C457.569 88.96 453.249 87.904 449.537 85.792C445.825 83.616 442.945 80.64 440.897 76.864C438.913 73.024 437.921 68.576 437.921 63.52C437.921 58.464 438.913 54.048 440.897 50.272C442.945 46.432 445.825 43.456 449.537 41.344C453.249 39.168 457.569 38.08 462.497 38.08C467.425 38.08 471.713 39.168 475.361 41.344C479.073 43.456 481.953 46.432 484 50.272C486.049 54.048 487.073 58.464 487.073 63.52C487.073 68.576 486.049 73.024 484 76.864C481.953 80.64 479.073 83.616 475.361 85.792C471.713 87.904 467.425 88.96 462.497 88.96ZM462.497 80.992C464.929 80.992 467.361 80.416 469.793 79.264C472.225 78.112 474.241 76.256 475.841 73.696C477.505 71.072 478.337 67.648 478.337 63.424C478.337 59.2 477.505 55.808 475.841 53.248C474.241 50.688 472.225 48.864 469.793 47.776C467.361 46.624 464.929 46.048 462.497 46.048C460.065 46.048 457.601 46.624 455.105 47.776C452.673 48.864 450.657 50.688 449.057 53.248C447.457 55.808 446.657 59.2 446.657 63.424C446.657 67.648 447.457 71.072 449.057 73.696C450.657 76.256 452.673 78.112 455.105 79.264C457.601 80.416 460.065 80.992 462.497 80.992ZM516.007 88.96C512.359 88.96 509.255 88.128 506.695 86.464C504.135 84.736 502.183 82.432 500.839 79.552C499.495 76.672 498.823 73.536 498.823 70.144V42.88C498.823 41.664 499.239 40.64 500.071 39.808C500.967 38.976 502.023 38.56 503.239 38.56C504.455 38.56 505.479 38.976 506.311 39.808C507.143 40.64 507.559 41.664 507.559 42.88V69.184C507.559 72.832 508.391 75.712 510.055 77.824C511.719 79.872 514.407 80.896 518.119 80.896C521.575 80.896 524.583 79.968 527.143 78.112C529.703 76.192 531.943 74.048 533.863 71.68V42.88C533.863 41.664 534.279 40.64 535.111 39.808C536.007 38.976 537.063 38.56 538.279 38.56C539.495 38.56 540.519 38.976 541.351 39.808C542.183 40.64 542.599 41.664 542.599 42.88V84.064C542.599 85.28 542.183 86.336 541.351 87.232C540.519 88.064 539.495 88.48 538.279 88.48C537.063 88.48 536.007 88.064 535.111 87.232C534.279 86.336 533.863 85.28 533.863 84.064V80.128C531.879 82.304 529.479 84.32 526.663 86.176C523.847 88.032 520.295 88.96 516.007 88.96ZM573.643 88.96C570.123 88.96 566.923 88.576 564.043 87.808C561.227 87.04 558.603 85.984 556.171 84.64C555.083 83.872 554.539 82.816 554.539 81.472C554.539 80.512 554.891 79.648 555.595 78.88C556.299 78.048 557.195 77.632 558.283 77.632C558.859 77.632 559.435 77.76 560.011 78.016C561.739 78.784 563.627 79.456 565.675 80.032C567.787 80.608 570.251 80.896 573.067 80.896C576.779 80.896 579.467 80.32 581.131 79.168C582.859 77.952 583.723 76.256 583.723 74.08C583.723 72.672 583.019 71.584 581.611 70.816C580.267 70.048 578.475 69.408 576.235 68.896C574.059 68.32 571.755 67.744 569.323 67.168C566.891 66.528 564.555 65.696 562.315 64.672C560.139 63.584 558.347 62.144 556.939 60.352C555.595 58.496 554.923 56.128 554.923 53.248C554.923 48.896 556.491 45.28 559.627 42.4C562.763 39.52 567.435 38.08 573.643 38.08C576.267 38.08 578.731 38.304 581.035 38.752C583.403 39.2 585.579 39.776 587.563 40.48C588.459 40.736 589.131 41.248 589.579 42.016C590.091 42.72 590.347 43.424 590.347 44.128C590.347 45.152 589.963 46.048 589.195 46.816C588.491 47.584 587.595 47.968 586.507 47.968C586.251 47.968 586.027 47.968 585.835 47.968C585.643 47.904 585.451 47.84 585.259 47.776C583.723 47.264 582.027 46.848 580.171 46.528C578.379 46.208 576.427 46.048 574.315 46.048C570.795 46.048 568.075 46.688 566.155 47.968C564.235 49.248 563.275 50.848 563.275 52.768C563.275 54.432 563.947 55.712 565.291 56.608C566.699 57.504 568.491 58.24 570.667 58.816C572.907 59.328 575.243 59.872 577.675 60.448C580.171 61.024 582.507 61.856 584.683 62.944C586.923 63.968 588.715 65.408 590.059 67.264C591.467 69.12 592.171 71.616 592.171 74.752C592.171 78.656 590.603 82.016 587.467 84.832C584.395 87.584 579.787 88.96 573.643 88.96ZM625.816 88.96C618.008 88.96 611.896 86.752 607.48 82.336C603.128 77.856 600.952 71.584 600.952 63.52C600.952 59.168 601.752 55.072 603.352 51.232C604.952 47.328 607.448 44.16 610.84 41.728C614.232 39.296 618.584 38.08 623.896 38.08C628.824 38.08 632.984 39.232 636.376 41.536C639.768 43.776 642.328 46.72 644.056 50.368C645.848 54.016 646.744 57.984 646.744 62.272C646.744 63.488 646.328 64.512 645.496 65.344C644.728 66.176 643.672 66.592 642.328 66.592H609.784C610.296 70.88 611.928 74.336 614.68 76.96C617.432 79.52 621.4 80.8 626.584 80.8C629.464 80.8 631.896 80.544 633.88 80.032C635.864 79.456 637.752 78.72 639.544 77.824C640.056 77.568 640.632 77.44 641.272 77.44C642.296 77.44 643.192 77.792 643.96 78.496C644.728 79.2 645.112 80.096 645.112 81.184C645.112 81.952 644.856 82.656 644.344 83.296C643.896 83.872 643.32 84.352 642.616 84.736C640.504 85.952 638.2 86.976 635.704 87.808C633.272 88.576 629.976 88.96 625.816 88.96ZM609.784 59.488H638.104C637.912 56.16 637.048 53.472 635.512 51.424C634.04 49.376 632.248 47.872 630.136 46.912C628.024 45.952 625.944 45.472 623.896 45.472C621.848 45.472 619.768 45.952 617.656 46.912C615.544 47.872 613.752 49.376 612.28 51.424C610.808 53.472 609.976 56.16 609.784 59.488Z" fill="#EFE1BA"/>
<rect width="34.1176" height="34.1176" rx="5" fill="#D79922"/>
<rect y="40.9412" width="34.1176" height="51.1765" rx="5" fill="#F13C1F"/>
<rect x="40.9412" width="34.1176" height="51.1765" rx="5" fill="#C5CBE3"/>
<rect x="40.9412" y="58" width="34.1176" height="17.0588" rx="5" fill="#4056A1"/>
<rect y="98.9412" width="34.1176" height="17.0588" rx="5" fill="#EFE1BA"/>
</svg>
